Coordinates
version=1
nRows=8
nColumns=46
inDegrees=yes

Units are S.I. units (second, meters, Newtons, ...)
Angles are in degrees.

endheader
time	pelvis_tilt	pelvis_list	pelvis_rotation	pelvis_tx	pelvis_ty	pelvis_tz	bb_angle	bb_tx	bb_ty	bb_tz	hip_flexion_r	hip_adduction_r	hip_rotation_r	knee_angle_r	knee_angle_r_beta	ankle_angle_r	subtalar_angle_r	mtp_angle_r	crank_angle_r	hip_flexion_l	hip_adduction_l	hip_rotation_l	knee_angle_l	knee_angle_l_beta	ankle_angle_l	subtalar_angle_l	mtp_angle_l	crank_angle_l	lumbar_extension	lumbar_bending	lumbar_rotation	arm_flex_r	arm_add_r	arm_rot_r	elbow_flex_r	pro_sup_r	wrist_flex_r	wrist_dev_r	arm_flex_l	arm_add_l	arm_rot_l	elbow_flex_l	pro_sup_l	wrist_flex_l	wrist_dev_l
      2.50500000	    -22.62509783	     -9.05829007	     -4.52711663	      0.39763499	      1.15555936	     -0.17788930	      0.00000000	      0.50000000	      0.00000000	      0.25000000	     62.78027257	      7.33335068	     -4.12703970	    100.74836837	      1.75839074	     -8.72553542	    -11.11791997	      0.00000000	      0.00000000	     35.69989820	    -16.65134781	      5.67884346	     25.96714508	      0.45321218	    -15.89992780	     -2.69021801	      0.00000000	      0.00000000	    -52.46203295	      0.49722012	      1.99346844	     71.38803708	    -10.30041007	     60.10609882	     39.49270628	     58.45682680	      0.00000000	      0.00000000	     54.95926970	    -30.38855242	     28.33850237	     67.08384614	     53.25641614	      0.00000000	      0.00000000
      2.51000000	    -22.86635503	     -9.59853468	     -5.39666252	      0.39743649	      1.15447590	     -0.17928355	      0.00000000	      0.50000000	      0.00000000	      0.25000000	     64.38143983	      7.78680381	     -4.46918453	    102.06297770	      1.78133501	     -7.86351331	    -10.82078261	      0.00000000	      0.00000000	     34.40014429	    -17.66191782	      5.01285475	     24.37305716	      0.42539010	    -16.78782694	     -1.66398212	      0.00000000	      0.00000000	    -51.98426405	      1.16156833	      2.91218522	     71.59892771	    -10.04418151	     60.46023373	     39.26909983	     58.46599966	      0.00000000	      0.00000000	     54.42719142	    -30.59296228	     28.60518980	     66.61587336	     53.21610284	      0.00000000	      0.00000000
      2.51500000	    -22.67347326	     -9.97897340	     -6.69999392	      0.39789408	      1.15449010	     -0.17932021	      0.00000000	      0.50000000	      0.00000000	      0.25000000	     65.40223941	      8.79537126	     -4.31560919	    103.15389642	      1.80037513	     -6.96345815	     -9.75357017	      0.00000000	      0.00000000	     32.48036496	    -18.96574265	      2.83831975	     22.98479033	      0.40116027	    -17.47934089	      0.18777519	      0.00000000	      0.00000000	    -51.80619317	      1.48980405	      4.04329138	     73.02285651	     -8.87617068	     64.55797051	     35.79920982	     58.66150858	      0.00000000	      0.00000000	     54.94160088	    -30.51940119	     30.22334589	     63.87749808	     52.99899566	      0.00000000	      0.00000000
      2.52000000	    -22.72090393	    -10.18428455	     -7.76321886	      0.39841582	      1.15452237	     -0.18040971	      0.00000000	      0.50000000	      0.00000000	      0.25000000	     66.61256702	      9.34846447	     -4.18599320	    104.11933412	      1.81722520	     -5.97466852	     -8.87020811	      0.00000000	      0.00000000	     30.77186139	    -19.76720693	      1.11656690	     21.47623654	      0.37483104	    -18.40312812	      1.55505233	      0.00000000	      0.00000000	    -51.68107460	      1.82528419	      4.82802664	     73.27060000	     -8.55891256	     65.18159491	     35.60991748	     58.74054360	      0.00000000	      0.00000000	     54.24826663	    -30.90350401	     30.41637386	     63.66052436	     53.00481950	      0.00000000	      0.00000000
      2.52500000	    -22.65296592	    -10.33075316	     -8.73692444	      0.39892002	      1.15511241	     -0.18147452	      0.00000000	      0.50000000	      0.00000000	      0.25000000	     67.62359560	      9.85752203	     -4.02023150	    104.90402189	      1.83092058	     -4.98965308	     -8.19116896	      0.00000000	      0.00000000	     28.92455803	    -20.38820267	     -0.56146545	     19.94146088	      0.34804415	    -19.45620992	      2.90547460	      0.00000000	      0.00000000	    -51.70150664	      2.17581417	      5.48919380	     73.65369832	     -7.96170091	     65.96908926	     34.94898959	     58.77964087	      0.00000000	      0.00000000	     53.87716076	    -31.00990586	     30.59225835	     62.86857454	     52.91202214	      0.00000000	      0.00000000
      2.53000000	    -22.62902811	    -10.37044793	     -9.69251993	      0.39947633	      1.15597161	     -0.18252380	      0.00000000	      0.50000000	      0.00000000	      0.25000000	     68.61715496	     10.32317684	     -3.82845754	    105.45539556	      1.84054387	     -4.29348564	     -7.54110105	      0.00000000	      0.00000000	     27.15361849	    -20.83245046	     -2.31794733	     18.48115243	      0.32255696	    -20.71289110	      3.97485300	      0.00000000	      0.00000000	    -51.72787783	      2.46458881	      6.03415695	     74.06396655	     -7.24592741	     66.77837190	     34.12043974	     58.80018887	      0.00000000	      0.00000000	     53.64370338	    -30.84609849	     31.09309883	     61.84683142	     52.81298959	      0.00000000	      0.00000000
      2.53500000	    -22.62674582	    -10.36039331	    -10.45517818	      0.40015472	      1.15728040	     -0.18391019	      0.00000000	      0.50000000	      0.00000000	      0.25000000	     69.50761256	     10.63098327	     -3.65037782	    105.78399984	      1.84627909	     -3.55073541	     -7.12130178	      0.00000000	      0.00000000	     25.52801994	    -21.08248375	     -3.90476282	     17.08070038	      0.29811446	    -22.17105882	      5.08824906	      0.00000000	      0.00000000	    -51.65129185	      2.90901321	      6.64984721	     74.88542766	     -6.45991247	     69.08917848	     32.14181540	     58.95901162	      0.00000000	      0.00000000	     54.14216244	    -30.15427632	     32.01930718	     59.21528871	     52.53034269	      0.00000000	      0.00000000
      2.54000000	    -22.50001410	    -10.30344099	    -11.18811744	      0.40108529	      1.15909217	     -0.18548850	      0.00000000	      0.50000000	      0.00000000	      0.25000000	     70.15564169	     10.87441820	     -3.41950752	    105.94754129	      1.84913343	     -2.72555927	     -6.54915195	      0.00000000	      0.00000000	     23.84016732	    -21.16713030	     -5.54849253	     15.81885360	      0.27609108	    -23.79217563	      5.72244768	      0.00000000	      0.00000000	    -51.90532646	      3.20552424	      7.05568656	     75.09955597	     -6.17645054	     69.29775360	     32.09689238	     58.98676091	      0.00000000	      0.00000000	     53.88153963	    -29.96106563	     31.91025519	     58.37587667	     52.39925574	      0.00000000	      0.00000000
